<svg class="bannerWrapper" id="sw-js-blob-svg" viewBox="0 0 100 100" xmlns="http://www.w3.org/2000/svg"><defs><linearGradient id="sw-gradient" x1="0" x2="1" y1="1" y2="0"><stop id="stop1" stop-color="rgba(248, 117, 55, 1)" offset="0%"></stop><stop id="stop2" stop-color="rgba(251, 168, 31, 1)" offset="100%"></stop></linearGradient></defs><path fill="url(#sw-gradient)" d="M24.7,-31.5C29.5,-25.5,29.1,-15.3,30.3,-5.7C31.6,3.9,34.6,12.8,32,19.7C29.5,26.7,21.4,31.7,13.3,33.1C5.2,34.6,-3,32.5,-11,29.8C-19.1,27.1,-27.1,23.7,-32.6,17.3C-38.2,10.9,-41.3,1.5,-39.1,-6.2C-36.9,-13.9,-29.4,-20,-22,-25.5C-14.6,-31,-7.3,-36,1.4,-37.7C10,-39.3,20,-37.5,24.7,-31.5Z" width="100%" height="100%" transform="translate(50 50)" stroke-width="0" style="transition: all 0.3s ease 0s;"></path></svg>