<?xml version="1.0" standalone="no"?>
<!DOCTYPE svg PUBLIC "-//W3C//DTD SVG 20010904//EN"
 "http://www.w3.org/TR/2001/REC-SVG-20010904/DTD/svg10.dtd">
<svg version="1.0" xmlns="http://www.w3.org/2000/svg"
 width="504.000000pt" height="581.000000pt" viewBox="0 0 504.000000 581.000000"
 preserveAspectRatio="xMidYMid meet">
<metadata>
Created by potrace 1.16, written by Peter Selinger 2001-2019
</metadata>
<g transform="translate(0.000000,581.000000) scale(0.100000,-0.100000)"
fill="#000000" stroke="none">
<path d="M1890 5381 l-245 -38 -335 -196 -335 -197 -182 -342 c-120 -225 -183
-353 -183 -373 0 -16 9 -122 21 -235 27 -266 76 -449 180 -664 l69 -144 21
-309 c11 -169 25 -316 30 -325 5 -9 22 -135 38 -280 17 -145 37 -288 46 -318
55 -192 81 -258 155 -391 81 -148 92 -162 402 -527 154 -180 227 -236 418
-323 162 -73 300 -99 528 -99 147 0 156 1 265 36 61 19 216 74 342 121 l231
86 100 96 c131 125 360 422 387 501 27 82 53 199 82 370 14 84 28 157 31 162
3 5 1 56 -6 114 -9 88 -9 108 3 118 9 7 29 111 56 296 47 309 50 326 142 636
l62 209 47 445 47 445 -92 313 c-51 172 -94 314 -96 316 -2 1 -155 96 -340
210 l-337 207 -253 24 c-140 13 -419 40 -620 60 -202 19 -382 35 -400 34 -19
-1 -144 -18 -279 -38z m101 -665 l354 -114 250 -21 c177 -15 332 -21 530 -21
l280 0 138 -138 137 -138 95 -224 95 -224 0 -226 c0 -216 2 -242 45 -541 l46
-314 -42 -240 -41 -239 -65 -72 -64 -72 -69 -242 c-38 -134 -71 -244 -72 -245
-22 -21 -315 -202 -320 -198 -5 2 -8 82 -8 178 l0 174 -77 113 -76 113 -152
105 -152 105 -114 -7 c-63 -3 -249 -7 -414 -7 l-300 -1 -187 -107 -188 -108 0
-212 c0 -209 0 -214 -30 -308 l-31 -94 -79 62 -79 62 -87 185 c-187 397 -256
593 -305 860 -6 36 -16 69 -20 74 -14 16 -11 46 31 331 74 490 90 661 90 939
l0 250 106 282 106 283 97 37 c53 20 116 45 141 55 25 10 52 18 61 18 9 1 176
-50 370 -113z m905 -2784 c26 -56 95 -186 155 -288 l107 -186 -78 -107 c-58
-79 -101 -124 -168 -178 -87 -70 -93 -72 -218 -107 l-129 -35 -268 17 c-147 9
-271 14 -275 10 -4 -4 -54 33 -112 82 l-105 88 -12 139 c-13 154 -15 384 -5
453 l7 45 148 85 147 85 379 0 379 0 48 -103z"/>
<path d="M1515 3467 c-77 -40 -149 -79 -161 -86 -13 -9 -32 -48 -52 -109 -17
-53 -30 -97 -28 -99 2 -2 25 16 52 40 27 24 78 65 114 92 l65 48 215 -6 c205
-6 219 -5 295 17 77 22 81 25 117 77 20 30 37 59 37 65 1 7 -68 13 -211 18
-117 3 -233 9 -258 11 -41 5 -57 -1 -185 -68z"/>
<path d="M3010 3479 c-47 -5 -125 -17 -174 -26 l-90 -18 -2 -57 c-2 -48 1 -58
15 -58 9 0 99 7 201 16 154 14 205 15 304 5 108 -10 131 -16 249 -66 72 -30
132 -53 134 -52 10 10 -135 149 -212 202 l-93 65 -123 -1 c-68 -1 -162 -6
-209 -10z"/>
</g>
</svg>
